<svg width="208" height="208" viewBox="0 0 208 208" fill="none" xmlns="http://www.w3.org/2000/svg">
  <g filter="url(#filter0_d_105_2)">
    <g filter="url(#filter1_i_105_2)">
      <path d="M204 100C204 155.228 159.228 200 104 200C48.7715 200 4 155.228 4 100C4 44.7715 48.7715 0 104 0C159.228 0 204 44.7715 204 100ZM28.5455 100C28.5455 141.672 62.3276 175.454 104 175.454C145.672 175.454 179.454 141.672 179.454 100C179.454 58.3276 145.672 24.5455 104 24.5455C62.3276 24.5455 28.5455 58.3276 28.5455 100Z" fill="#BCBCBC" fill-opacity="0.95"/>
    </g>
    <g filter="url(#filter2_b_105_2)">
      <path d="M53.9276 147.29C52.971 148.656 54.6427 150.319 56.0097 149.362L113.069 109.385C113.211 109.285 113.335 109.161 113.435 109.019L153.363 52.0005C154.32 50.6344 152.648 48.9714 151.281 49.9292L94.222 89.9061C94.0796 90.0058 93.9558 90.1297 93.8561 90.2719L53.9276 147.29Z" fill="#E86161" fill-opacity="0.95"/>
      <path d="M55.7228 148.952C54.8062 149.594 53.707 148.477 54.3372 147.577L94.2657 90.5587C94.3319 90.4642 94.4142 90.3819 94.5089 90.3156L151.568 50.3387C152.485 49.6964 153.584 50.8137 152.954 51.7137L113.025 108.732C112.959 108.827 112.877 108.909 112.782 108.975L55.7228 148.952Z" stroke="#CFCFCF" stroke-opacity="0.5"/>
    </g>
    <circle cx="103.291" cy="99.2908" r="5.67376" fill="#E0DCDC"/>
  </g>
  <defs>
    <filter id="filter0_d_105_2" x="0" y="0" width="208" height="208" filterUnits="userSpaceOnUse" color-interpolation-filters="sRGB">
      <feFlood flood-opacity="0" result="BackgroundImageFix"/>
      <feColorMatrix in="SourceAlpha" type="matrix" values="0 0 0 0 0 0 0 0 0 0 0 0 0 0 0 0 0 0 127 0" result="hardAlpha"/>
      <feOffset dy="4"/>
      <feGaussianBlur stdDeviation="2"/>
      <feComposite in2="hardAlpha" operator="out"/>
      <feColorMatrix type="matrix" values="0 0 0 0 0 0 0 0 0 0 0 0 0 0 0 0 0 0 0.25 0"/>
      <feBlend mode="normal" in2="BackgroundImageFix" result="effect1_dropShadow_105_2"/>
      <feBlend mode="normal" in="SourceGraphic" in2="effect1_dropShadow_105_2" result="shape"/>
    </filter>
    <filter id="filter1_i_105_2" x="4" y="0" width="200" height="204" filterUnits="userSpaceOnUse" color-interpolation-filters="sRGB">
      <feFlood flood-opacity="0" result="BackgroundImageFix"/>
      <feBlend mode="normal" in="SourceGraphic" in2="BackgroundImageFix" result="shape"/>
      <feColorMatrix in="SourceAlpha" type="matrix" values="0 0 0 0 0 0 0 0 0 0 0 0 0 0 0 0 0 0 127 0" result="hardAlpha"/>
      <feOffset dy="4"/>
      <feGaussianBlur stdDeviation="2"/>
      <feComposite in2="hardAlpha" operator="arithmetic" k2="-1" k3="1"/>
      <feColorMatrix type="matrix" values="0 0 0 0 0 0 0 0 0 0 0 0 0 0 0 0 0 0 0.25 0"/>
      <feBlend mode="normal" in2="shape" result="effect1_innerShadow_105_2"/>
    </filter>
    <filter id="filter2_b_105_2" x="49.6454" y="45.6454" width="108" height="108" filterUnits="userSpaceOnUse" color-interpolation-filters="sRGB">
      <feFlood flood-opacity="0" result="BackgroundImageFix"/>
      <feGaussianBlur in="BackgroundImageFix" stdDeviation="2"/>
      <feComposite in2="SourceAlpha" operator="in" result="effect1_backgroundBlur_105_2"/>
      <feBlend mode="normal" in="SourceGraphic" in2="effect1_backgroundBlur_105_2" result="shape"/>
    </filter>
  </defs>
</svg>
